<?xml version="1.0" encoding="UTF-8"?>
<svg width="210px" height="62px" viewBox="0 0 210 62" version="1.1" xmlns="http://www.w3.org/2000/svg" xmlns:xlink="http://www.w3.org/1999/xlink">
    <!-- Generator: Sketch 61.2 (89653) - https://sketch.com -->
    <title>TRAC Logo (black)</title>
    <desc>Created with Sketch.</desc>
    <g id="Symbols" stroke="none" stroke-width="1" fill="none" fill-rule="evenodd">
        <g id="Global-/-Header" transform="translate(-103.000000, -102.000000)" fill="#25468B">
            <g id="HEADER">
                <g id="Main-Navigation" transform="translate(103.000000, 102.000000)">
                    <g id="TRAC-Logo-(black)">
                        <path d="M5,55 L5,55.7309507 L2.86429366,55.7309507 L2.86429366,62 L2.13681869,62 L2.13681869,55.7309507 L0,55.7309507 L0,55 L5,55 Z M11.9515202,55 L11.9515202,55.7211639 L7.77328226,55.7211639 L7.77328226,58.1103635 L11.5110127,58.1103635 L11.5110127,58.8303041 L7.77328226,58.8303041 L7.77328226,61.2794477 L12,61.2794477 L12,62 L7,62 L7,55 L11.9515202,55 Z M68.5107914,55 C70.5983213,55 72,56.6148843 72,58.4899476 C72,60.3656023 70.5791367,62 68.4916067,62 C66.4016787,62 65,60.3845244 65,58.5100524 C65,56.6343977 66.4214628,55 68.5107914,55 Z M84.1201522,55 C85.7173201,55 86.7413083,55.8300419 86.7413083,57.0894792 C86.7413083,58.2608354 85.9138751,58.9410171 84.7719539,59.1404229 L84.7719539,59.1404229 L87,62 L85.9963014,62 L83.8912607,59.2798847 L81.8191905,59.2798847 L81.8191905,62 L81,62 L81,55 Z M99.950341,55 L99.950341,55.7211639 L95.7730047,55.7211639 L95.7730047,58.1103635 L99.5099916,58.1103635 L99.5099916,58.8303041 L95.7730047,58.8303041 L95.7730047,61.2794477 L100,61.2794477 L100,62 L95,62 L95,55 L99.950341,55 Z M48.1201268,55 C49.7163233,55 50.7419968,55.8300419 50.7419968,57.0894792 C50.7419968,58.2608354 49.9128368,58.9410171 48.7730586,59.1404229 L48.7730586,59.1404229 L51,62 L49.9952456,62 L47.8925515,59.2798847 L45.8190174,59.2798847 L45.8190174,62 L45,62 L45,55 Z M117.862836,55 L121,62 L120.165507,62 L119.358069,60.1626898 L115.614275,60.1626898 L114.799021,62 L114,62 L117.136563,55 L117.862836,55 Z M124.369928,55 C126.516706,55 128,56.5108354 128,58.4896015 C128,60.4702027 126.516706,62 124.369928,62 L124.369928,62 L122,62 L122,55 Z M138,55 L138,62 L137,62 L137,55 L138,55 Z M148.510496,55 C150.598321,55 152,56.6148843 152,58.4899476 C152,60.3656023 150.579128,62 148.490104,62 C146.402879,62 145,60.3845244 145,58.5100524 C145,56.6343977 146.422072,55 148.510496,55 Z M157.121116,55 C158.717819,55 159.742549,55.8300419 159.742549,57.0894792 C159.742549,58.2608354 158.914394,58.9410171 157.772353,59.1404229 L157.772353,59.1404229 L160,62 L158.996195,62 L156.891566,59.2798847 L154.819277,59.2798847 L154.819277,62 L154,62 L154,55 Z M182.949737,55 L182.949737,55.7211639 L178.772499,55.7211639 L178.772499,58.1103635 L182.509933,58.1103635 L182.509933,58.8303041 L178.772499,58.8303041 L178.772499,61.2794477 L183,61.2794477 L183,62 L178,62 L178,55 L182.949737,55 Z M197,55 L197,55.7309507 L194.862625,55.7309507 L194.862625,62 L194.136819,62 L194.136819,55.7309507 L192,55.7309507 L192,55 L197,55 Z M201.120152,55 C202.716686,55 203.741942,55.8300419 203.741942,57.0894792 C203.741942,58.2608354 202.913241,58.9410171 201.771954,59.1404229 L201.771954,59.1404229 L204,62 L202.996301,62 L200.891261,59.2798847 L198.818556,59.2798847 L198.818556,62 L198,62 L198,55 Z M23.864101,55 L27,62 L26.1647625,62 L25.3589898,60.1626898 L21.6133494,60.1626898 L20.7961515,62 L20,62 L23.135899,55 L23.864101,55 Z M184.75124,55 L189.219628,60.6096645 L189.219628,55 L190,55 L190,62 L189.359711,62 L184.780992,56.2600489 L184.780992,62 L184,62 L184,55 L184.75124,55 Z M141.456887,55 C142.428105,55 143.123747,55.2806898 143.800746,55.8349333 L143.800746,55.8349333 L143.360872,56.4284258 C142.7433,55.9128366 142.122815,55.6898309 141.43766,55.6898309 C140.571895,55.6898309 140.019576,56.175686 140.019576,56.7977232 C140.019576,57.4483052 140.362153,57.8098717 141.828595,58.1304052 C143.314845,58.4610483 144,59.0135078 144,60.0649053 C144,61.241186 143.048007,62 141.724307,62 C140.666278,62 139.801095,61.6390281 139,60.9117322 L139,60.9117322 L139.466092,60.3461898 C140.162316,60.9884462 140.828828,61.3095744 141.751107,61.3095744 C142.646586,61.3095744 143.236775,60.8320449 143.236775,60.1434033 C143.236775,59.5017416 142.905267,59.140175 141.505826,58.8386713 C139.970636,58.4997027 139.266838,57.9936284 139.266838,56.8667063 C139.266838,55.7778439 140.189117,55 141.456887,55 Z M57.9503232,55 L57.9503232,55.7211639 L53.7726837,55.7211639 L53.7726837,58.1103635 L57.5104142,58.1103635 L57.5104142,58.8303041 L53.7726837,58.8303041 L53.7726837,61.2794477 L58,61.2794477 L58,62 L53,62 L53,55 L57.9503232,55 Z M91.3642795,55 C92.5731176,55 93.2946991,55.4358 93.9592984,56.0726474 L93.9592984,56.0726474 L93.4482023,56.6343977 C92.8853571,56.0939348 92.2585522,55.7066227 91.3567206,55.7066227 C89.8839035,55.7066227 88.7803082,56.9146815 88.7803082,58.4899476 C88.7803082,60.065805 89.8920438,61.2945599 91.3567206,61.2945599 C92.2690183,61.2945599 92.8661692,60.9362223 93.5046032,60.3177057 L93.5046032,60.3177057 L94,60.810272 C93.3051652,61.5263558 92.5434635,62 91.3375327,62 C89.4181607,62 88,60.4625781 88,58.5100524 C88,56.57704 89.4076945,55 91.3642795,55 Z M129.917531,55 L132.513381,60.9887202 L135.114965,55 L136,55 L132.867013,62 L132.136173,62 L129,55 L129.917531,55 Z M106.752495,55 C107.702796,55 108.39996,55.6752317 108.39996,56.5332772 C108.39996,57.4113732 107.788163,57.9515586 106.799921,58.2983151 L106.799921,58.2983151 L108.350756,59.8699242 C108.652505,59.4358888 108.924019,58.9245998 109.165893,58.3655434 L109.165893,58.3655434 L109.793696,58.6539174 C109.494912,59.2902275 109.184863,59.8699242 108.817311,60.3511373 L108.817311,60.3511373 L110,61.5565291 L109.418437,62 L108.350756,60.9107835 C107.730066,61.5759899 107.013931,61.9622578 106.132991,61.9622578 C104.911768,61.9622578 104,61.200337 104,60.0615838 C104,59.1557709 104.601719,58.5094356 105.636202,58.1060657 C105.172019,57.5652906 104.958601,57.1501264 104.958601,56.6105307 C104.958601,55.7141533 105.677107,55 106.752495,55 Z M29.7506974,55 L34.2189276,60.6096645 L34.2189276,55 L35,55 L35,62 L34.3608844,62 L29.7810724,56.2600489 L29.7810724,62 L29,62 L29,55 L29.7506974,55 Z M174.364861,55 C175.573699,55 176.294699,55.4358 176.959298,56.0726474 L176.959298,56.0726474 L176.448784,56.6343977 C175.885939,56.0939348 175.258552,55.7066227 174.356721,55.7066227 C172.884485,55.7066227 171.78089,56.9146815 171.78089,58.4899476 C171.78089,60.065805 172.892044,61.2945599 174.356721,61.2945599 C175.269018,61.2945599 175.867332,60.9362223 176.504603,60.3177057 L176.504603,60.3177057 L177,60.810272 C176.305165,61.5263558 175.544045,62 174.338114,62 C172.418742,62 171,60.4625781 171,58.5100524 C171,56.57704 172.407113,55 174.364861,55 Z M61.4571828,55 C62.4277059,55 63.1232669,55.2806898 63.8001864,55.8349333 L63.8001864,55.8349333 L63.3609461,56.4284258 C62.7434463,55.9128366 62.1230339,55.6898309 61.4379588,55.6898309 C60.5722941,55.6898309 60.0194571,56.175686 60.0194571,56.7977232 C60.0194571,57.4483052 60.3619946,57.8098717 61.8288477,58.1304052 C63.3149249,58.4610483 64,59.0135078 64,60.0649053 C64,61.241186 63.0481184,62 61.7239893,62 C60.6666667,62 59.801002,61.6390281 59,60.9117322 L59,60.9117322 L59.4666201,60.3461898 C60.1621811,60.9884462 60.8286147,61.3095744 61.7507864,61.3095744 C62.646161,61.3095744 63.2368636,60.8320449 63.2368636,60.1434033 C63.2368636,59.5017416 62.9048118,59.140175 61.5055342,58.8386713 C59.9705231,58.4997027 59.2668065,57.9936284 59.2668065,56.8667063 C59.2668065,55.7778439 60.1889782,55 61.4571828,55 Z M13.750155,55 L18.2194668,60.6096645 L18.2194668,55 L19,55 L19,62 L18.3614383,62 L13.7805332,56.2600489 L13.7805332,62 L13,62 L13,55 L13.750155,55 Z M73.8104534,55 L73.8104534,58.9573333 C73.8104534,60.444043 74.6353904,61.2804301 76.0144836,61.2804301 C77.3438287,61.2804301 78.186398,60.5132903 78.186398,59.0073118 L78.186398,59.0073118 L78.186398,55 L79,55 L79,58.9476989 C79,60.955871 77.7959698,62 75.9943325,62 C74.2128463,62 73,60.955871 73,59.0073118 L73,59.0073118 L73,55 L73.8104534,55 Z M41,55 L41,55.7309507 L38.8637375,55.7309507 L38.8637375,62 L38.1368187,62 L38.1368187,55.7309507 L36,55.7309507 L36,55 L41,55 Z M209.953305,55 L209.953305,55.7211639 L205.773467,55.7211639 L205.773467,58.1103635 L209.512093,58.1103635 L209.512093,58.8303041 L205.773467,58.8303041 L205.773467,61.2794477 L210,61.2794477 L210,62 L205,62 L205,55 L209.953305,55 Z M160.870288,55 L163.007761,58.5006117 L165.165743,55 L166,55 L163.361419,59.2211639 L163.361419,62 L162.638581,62 L162.638581,59.230339 L160,55 L160.870288,55 Z M106.072522,58.5778433 C105.172019,58.905139 104.774232,59.4547599 104.774232,60.0332772 C104.774232,60.7663016 105.356388,61.314743 106.190495,61.314743 C106.830155,61.314743 107.392748,60.9786015 107.887165,60.4390059 L107.887165,60.4390059 Z M148.490104,55.7066227 C146.921686,55.7066227 145.802502,56.9442473 145.802502,58.4899476 C145.802502,60.0374219 146.941479,61.2945599 148.510496,61.2945599 C150.079513,61.2945599 151.197498,60.0569353 151.197498,58.5100524 C151.197498,56.9625781 150.059721,55.7066227 148.490104,55.7066227 Z M68.4916067,55.7066227 C66.9238609,55.7066227 65.8051559,56.9442473 65.8051559,58.4899476 C65.8051559,60.0374219 66.9430456,61.2945599 68.5107914,61.2945599 C70.0797362,61.2945599 71.1948441,60.0569353 71.1948441,58.5100524 C71.1948441,56.9625781 70.059952,55.7066227 68.4916067,55.7066227 Z M124.369928,55.7309507 L122.770883,55.7309507 L122.770883,61.269661 L124.369928,61.269661 C126.096659,61.269661 127.201671,60.0701678 127.201671,58.5103985 C127.201671,56.9500175 126.096659,55.7309507 124.369928,55.7309507 L124.369928,55.7309507 Z M117.49008,55.9140998 L115.917891,59.4581345 L119.055055,59.4581345 L117.49008,55.9140998 Z M23.4906795,55.9140998 L21.9182201,59.4581345 L25.0541191,59.4581345 L23.4906795,55.9140998 Z M48.0580032,55.7309507 L45.8190174,55.7309507 L45.8190174,58.5703425 L48.0478605,58.5703425 C49.1350238,58.5703425 49.9128368,58.0296225 49.9128368,57.1200629 C49.9128368,56.2502621 49.229477,55.7309507 48.0580032,55.7309507 L48.0580032,55.7309507 Z M84.0586495,55.7309507 L81.8191905,55.7309507 L81.8191905,58.5703425 L84.0472366,58.5703425 C85.1358977,58.5703425 85.9138751,58.0296225 85.9138751,57.1200629 C85.9138751,56.2502621 85.2303709,55.7309507 84.0586495,55.7309507 L84.0586495,55.7309507 Z M157.058973,55.7309507 L154.819277,55.7309507 L154.819277,58.5703425 L157.047559,58.5703425 C158.136969,58.5703425 158.914394,58.0296225 158.914394,57.1200629 C158.914394,56.2502621 158.230184,55.7309507 157.058973,55.7309507 L157.058973,55.7309507 Z M201.058015,55.7309507 L198.818556,55.7309507 L198.818556,58.5703425 L201.046603,58.5703425 C202.135264,58.5703425 202.913241,58.0296225 202.913241,57.1200629 C202.913241,56.2502621 202.230371,55.7309507 201.058015,55.7309507 L201.058015,55.7309507 Z M106.722853,55.6274642 C106.110463,55.6274642 105.696077,56.0514743 105.696077,56.6105307 C105.696077,57.0168492 105.861476,57.3158382 106.374271,57.86369 C107.236241,57.5741365 107.683233,57.1707666 107.683233,56.5727885 C107.683233,56.0225779 107.274182,55.6274642 106.722853,55.6274642 Z M190.123919,2 C197.589345,2 204.573208,6.16936577 208.353657,12.880587 C208.930692,13.9111829 208.568018,15.2194554 207.544847,15.8001068 C206.53969,16.359074 205.192875,15.9765911 204.635054,14.9893633 C201.611176,9.61894071 196.051586,6.28260483 190.123919,6.28260483 C180.830716,6.28260483 173.269818,14.2316253 173.269818,24.0015058 C173.269818,33.7695793 180.830716,41.7167928 190.123919,41.7167928 C196.328395,41.7167928 202.017081,38.1455461 204.969506,32.3968569 C205.487697,31.3795124 206.824905,30.9434215 207.843873,31.474079 C208.887459,32.0113622 209.301771,33.3051787 208.764967,34.3568564 C205.076387,41.5391039 197.934605,46 190.123919,46 C178.476341,46 169,36.1319388 169,24.0015058 C169,11.8698682 178.476341,2 190.123919,2 Z M121.0008,0.480383562 C122.1768,0.480383562 123.1338,1.44175342 123.1338,2.62312329 L123.1338,2.62312329 L123.1338,8.0429589 L132.2964,0.928219178 C133.0356,0.350794521 134.1642,0.350191781 134.9064,0.929424658 L134.9064,0.929424658 L151.779,14.0317808 C152.2986,14.4362192 152.6082,15.0703014 152.6082,15.7272877 L152.6082,15.7272877 L152.6082,41.2870685 C152.6082,42.4690411 151.6512,43.430411 150.4746,43.430411 C149.298,43.430411 148.3416,42.4690411 148.3416,41.2870685 L148.3416,41.2870685 L148.3416,16.7808767 L133.6002,5.33123288 L118.8594,16.7808767 L118.8594,41.2870685 C118.8594,42.4690411 117.9024,43.430411 116.7258,43.430411 C115.5492,43.430411 114.5922,42.4690411 114.5922,41.2870685 L114.5922,41.2870685 L114.5922,15.7272877 C114.5922,15.0703014 114.9024,14.4362192 115.4202,14.0323836 L115.4202,14.0323836 L118.8672,11.3556164 L118.8672,2.62312329 C118.8672,1.44175342 119.8242,0.480383562 121.0008,0.480383562 Z M137.7636,21.7655342 C138.8412,21.7655342 139.7196,22.646137 139.7196,23.729863 L139.7196,23.729863 L139.7196,41.2870685 C139.7196,42.3707945 138.8412,43.2513973 137.7636,43.2513973 C136.6866,43.2513973 135.8088,42.3707945 135.8088,41.2870685 L135.8088,41.2870685 L135.8088,25.6947945 L130.7418,25.6947945 L130.7418,41.2870685 C130.7418,42.3707945 129.864,43.2513973 128.7864,43.2513973 C127.7088,43.2513973 126.831,42.3707945 126.831,41.2870685 L126.831,41.2870685 L126.831,23.729863 C126.831,22.646137 127.7088,21.7655342 128.7864,21.7655342 L128.7864,21.7655342 Z M38.8805747,2 C40.0496866,2 41,2.95909598 41,4.13767159 C41,5.31684853 40.0496866,6.2759445 38.8805747,6.2759445 L38.8805747,6.2759445 L22.6197234,6.2759445 L22.6197234,40.8617271 C22.6197234,42.040904 21.6688139,43 20.4997019,43 C19.3311861,43 18.3802766,42.040904 18.3802766,40.8617271 L18.3802766,40.8617271 L18.3802766,6.2759445 L2.11942534,6.2759445 C0.95090954,6.2759445 0,5.31684853 0,4.13767159 C0,2.95909598 0.95090954,2 2.11942534,2 L2.11942534,2 Z M84.4123513,2 C90.8016397,2 95.9988701,7.26751144 95.9988701,13.7418603 C95.9988701,19.0556729 92.496866,23.5498944 87.7090532,24.9936495 L87.7090532,24.9936495 L95.7395722,39.8346826 C96.0095505,40.3349759 96.0730399,40.9134401 95.9140197,41.4606359 C95.7561863,42.0084331 95.3972042,42.4612226 94.9029362,42.7366244 C94.5955763,42.9079989 94.2449012,43 93.8894793,43 C93.1175194,43 92.4084555,42.5736683 92.0393863,41.8881702 L92.0393863,41.8881702 L83.1639243,25.4843218 L66.2193749,25.4843218 L66.2193749,40.8617271 C66.2193749,42.040904 65.2729675,43 64.1093908,43 C62.945814,43 62,42.040904 62,40.8617271 L62,40.8617271 L62,4.13767159 C62,2.95909598 62.945814,2 64.1093908,2 L64.1093908,2 Z M84.4123513,6.2759445 L66.2193749,6.2759445 L66.2193749,21.2083773 L84.4123513,21.2083773 C88.4750795,21.2083773 91.7800885,17.8584565 91.7800885,13.7418603 C91.7800885,9.62526399 88.4750795,6.2759445 84.4123513,6.2759445 L84.4123513,6.2759445 Z" id="TRAC-LOGO"></path>
                    </g>
                </g>
            </g>
        </g>
    </g>
</svg>